<svg width="311" height="186" viewBox="0 0 311 186" fill="none" xmlns="http://www.w3.org/2000/svg">
<g filter="url(#filter0_bd_102_1573)">
<mask id="path-1-outside-1_102_1573" maskUnits="userSpaceOnUse" x="15" y="12" width="255" height="155" fill="black">
<rect fill="white" x="15" y="12" width="255" height="155"/>
<path fill-rule="evenodd" clip-rule="evenodd" d="M197.882 83.0141C197.882 85.4233 197.758 87.8036 197.517 90.149C204.953 83.6871 214.664 79.7752 225.288 79.7752C248.68 79.7752 267.643 98.7383 267.643 122.13C267.643 145.523 248.68 164.486 225.288 164.486H60.6379C60.6256 164.486 60.6133 164.486 60.601 164.486C60.5887 164.486 60.5764 164.486 60.5641 164.486H60.3518V164.485C36.3863 164.351 17 144.882 17 120.885C17 96.9758 36.2441 77.5617 60.0878 77.2867C62.999 41.8508 92.6809 14 128.868 14C166.983 14 197.882 44.8987 197.882 83.0141Z"/>
</mask>
<path fill-rule="evenodd" clip-rule="evenodd" d="M197.882 83.0141C197.882 85.4233 197.758 87.8036 197.517 90.149C204.953 83.6871 214.664 79.7752 225.288 79.7752C248.68 79.7752 267.643 98.7383 267.643 122.13C267.643 145.523 248.68 164.486 225.288 164.486H60.6379C60.6256 164.486 60.6133 164.486 60.601 164.486C60.5887 164.486 60.5764 164.486 60.5641 164.486H60.3518V164.485C36.3863 164.351 17 144.882 17 120.885C17 96.9758 36.2441 77.5617 60.0878 77.2867C62.999 41.8508 92.6809 14 128.868 14C166.983 14 197.882 44.8987 197.882 83.0141Z" fill="url(#paint0_linear_102_1573)" shape-rendering="crispEdges"/>
<path d="M197.517 90.149L195.528 89.9447L195.011 94.9771L198.829 91.6586L197.517 90.149ZM60.3518 164.486H58.3518V166.486H60.3518V164.486ZM60.3518 164.485H62.3518V162.496L60.363 162.485L60.3518 164.485ZM60.0878 77.2867L60.1109 79.2866L61.932 79.2656L62.0811 77.4504L60.0878 77.2867ZM199.507 90.3534C199.755 87.9401 199.882 85.4916 199.882 83.0141H195.882C195.882 85.3549 195.762 87.667 195.528 89.9447L199.507 90.3534ZM225.288 77.7752C214.163 77.7752 203.991 81.8733 196.206 88.6395L198.829 91.6586C205.915 85.5008 215.164 81.7752 225.288 81.7752V77.7752ZM269.643 122.13C269.643 97.6337 249.785 77.7752 225.288 77.7752V81.7752C247.576 81.7752 265.643 99.8429 265.643 122.13H269.643ZM225.288 166.486C249.785 166.486 269.643 146.627 269.643 122.13H265.643C265.643 144.418 247.576 162.486 225.288 162.486V166.486ZM225.288 162.486H60.6379V166.486H225.288V162.486ZM60.601 166.486C60.6079 166.486 60.6146 166.486 60.6207 166.486C60.6269 166.486 60.6324 166.486 60.6379 166.486V162.486C60.631 162.486 60.6242 162.486 60.6182 162.486C60.6119 162.486 60.6064 162.486 60.601 162.486V166.486ZM60.5641 166.486C60.5695 166.486 60.5751 166.486 60.5813 166.486C60.5874 166.486 60.5941 166.486 60.601 166.486V162.486C60.5956 162.486 60.59 162.486 60.5838 162.486C60.5777 162.486 60.571 162.486 60.5641 162.486V166.486ZM60.5641 162.486H60.3518V166.486H60.5641V162.486ZM62.3518 164.486V164.485H58.3518V164.486H62.3518ZM15 120.885C15 145.983 35.2756 166.345 60.3407 166.485L60.363 162.485C37.4971 162.357 19 143.781 19 120.885H15ZM60.0647 75.2868C35.1268 75.5744 15 95.879 15 120.885H19C19 98.0727 37.3614 79.5489 60.1109 79.2866L60.0647 75.2868ZM128.868 12C91.6312 12 61.0902 40.6581 58.0945 77.1229L62.0811 77.4504C64.9077 43.0436 93.7306 16 128.868 16V12ZM199.882 83.0141C199.882 43.7941 168.088 12 128.868 12V16C165.879 16 195.882 46.0033 195.882 83.0141H199.882Z" fill="url(#paint1_linear_102_1573)" mask="url(#path-1-outside-1_102_1573)"/>
</g>
<g filter="url(#filter1_bd_102_1573)">
<mask id="path-3-outside-2_102_1573" maskUnits="userSpaceOnUse" x="140" y="11" width="156" height="95" fill="black">
<rect fill="white" x="140" y="11" width="156" height="95"/>
<path fill-rule="evenodd" clip-rule="evenodd" d="M251.694 54.7334C251.694 56.1903 251.619 57.6297 251.473 59.048C255.982 55.1404 261.871 52.7748 268.314 52.7748C282.5 52.7748 294 64.242 294 78.3874C294 92.5329 282.5 104 268.314 104H168.462C168.455 104 168.448 104 168.441 104C168.435 104 168.428 104 168.421 104H168.29V104C153.757 103.918 142 92.1453 142 77.6341C142 63.1762 153.67 51.4363 168.13 51.27C169.896 29.8416 187.896 13 209.841 13C232.956 13 251.694 31.6847 251.694 54.7334Z"/>
</mask>
<path fill-rule="evenodd" clip-rule="evenodd" d="M251.694 54.7334C251.694 56.1903 251.619 57.6297 251.473 59.048C255.982 55.1404 261.871 52.7748 268.314 52.7748C282.5 52.7748 294 64.242 294 78.3874C294 92.5329 282.5 104 268.314 104H168.462C168.455 104 168.448 104 168.441 104C168.435 104 168.428 104 168.421 104H168.29V104C153.757 103.918 142 92.1453 142 77.6341C142 63.1762 153.67 51.4363 168.13 51.27C169.896 29.8416 187.896 13 209.841 13C232.956 13 251.694 31.6847 251.694 54.7334Z" fill="url(#paint2_linear_102_1573)" shape-rendering="crispEdges"/>
<path d="M251.473 59.048L249.483 58.8431L248.966 63.867L252.783 60.5594L251.473 59.048ZM168.29 104H166.29V106H168.29V104ZM168.29 104H170.29V102.011L168.301 102L168.29 104ZM168.13 51.27L168.153 53.2699L169.974 53.2489L170.123 51.4342L168.13 51.27ZM253.462 59.2529C253.615 57.7666 253.694 56.2588 253.694 54.7334H249.694C249.694 56.1217 249.623 57.4927 249.483 58.8431L253.462 59.2529ZM268.314 50.7748C261.372 50.7748 255.022 53.3254 250.163 57.5366L252.783 60.5594C256.942 56.9553 262.37 54.7748 268.314 54.7748V50.7748ZM296 78.3874C296 63.132 283.599 50.7748 268.314 50.7748V54.7748C281.401 54.7748 292 65.3519 292 78.3874H296ZM268.314 106C283.599 106 296 93.6428 296 78.3874H292C292 91.4229 281.401 102 268.314 102V106ZM268.314 102H168.462V106H268.314V102ZM168.441 106C168.445 106 168.449 106 168.453 106C168.456 106 168.459 106 168.462 106V102C168.458 102 168.454 102 168.45 102C168.447 102 168.444 102 168.441 102V106ZM168.421 106C168.424 106 168.427 106 168.43 106C168.433 106 168.437 106 168.441 106V102C168.439 102 168.436 102 168.432 102C168.429 102 168.425 102 168.421 102V106ZM168.421 102H168.29V106H168.421V102ZM170.29 104V104H166.29V104H170.29ZM140 77.6341C140 93.2515 152.651 105.912 168.279 106L168.301 102C154.862 101.925 144 91.0392 144 77.6341H140ZM168.107 49.2701C152.558 49.4489 140 62.074 140 77.6341H144C144 64.2784 154.782 53.4236 168.153 53.2699L168.107 49.2701ZM209.841 11C186.851 11 167.987 28.6439 166.137 51.1058L170.123 51.4342C171.804 31.0394 188.941 15 209.841 15V11ZM253.694 54.7334C253.694 30.5747 234.055 11 209.841 11V15C231.856 15 249.694 32.7947 249.694 54.7334H253.694Z" fill="url(#paint3_linear_102_1573)" mask="url(#path-3-outside-2_102_1573)"/>
</g>
<defs>
<filter id="filter0_bd_102_1573" x="0" y="1" width="284.643" height="184.486" filterUnits="userSpaceOnUse" color-interpolation-filters="sRGB">
<feFlood flood-opacity="0" result="BackgroundImageFix"/>
<feGaussianBlur in="BackgroundImageFix" stdDeviation="5"/>
<feComposite in2="SourceAlpha" operator="in" result="effect1_backgroundBlur_102_1573"/>
<feColorMatrix in="SourceAlpha" type="matrix" values="0 0 0 0 0 0 0 0 0 0 0 0 0 0 0 0 0 0 127 0" result="hardAlpha"/>
<feOffset dy="4"/>
<feGaussianBlur stdDeviation="7.5"/>
<feComposite in2="hardAlpha" operator="out"/>
<feColorMatrix type="matrix" values="0 0 0 0 0 0 0 0 0 0 0 0 0 0 0 0 0 0 0.1 0"/>
<feBlend mode="normal" in2="effect1_backgroundBlur_102_1573" result="effect2_dropShadow_102_1573"/>
<feBlend mode="normal" in="SourceGraphic" in2="effect2_dropShadow_102_1573" result="shape"/>
</filter>
<filter id="filter1_bd_102_1573" x="125" y="0" width="186" height="125" filterUnits="userSpaceOnUse" color-interpolation-filters="sRGB">
<feFlood flood-opacity="0" result="BackgroundImageFix"/>
<feGaussianBlur in="BackgroundImageFix" stdDeviation="5"/>
<feComposite in2="SourceAlpha" operator="in" result="effect1_backgroundBlur_102_1573"/>
<feColorMatrix in="SourceAlpha" type="matrix" values="0 0 0 0 0 0 0 0 0 0 0 0 0 0 0 0 0 0 127 0" result="hardAlpha"/>
<feOffset dy="4"/>
<feGaussianBlur stdDeviation="7.5"/>
<feComposite in2="hardAlpha" operator="out"/>
<feColorMatrix type="matrix" values="0 0 0 0 0 0 0 0 0 0 0 0 0 0 0 0 0 0 0.1 0"/>
<feBlend mode="normal" in2="effect1_backgroundBlur_102_1573" result="effect2_dropShadow_102_1573"/>
<feBlend mode="normal" in="SourceGraphic" in2="effect2_dropShadow_102_1573" result="shape"/>
</filter>
<linearGradient id="paint0_linear_102_1573" x1="96.5248" y1="29.5" x2="176.025" y2="159" gradientUnits="userSpaceOnUse">
<stop stop-color="#508ABF"/>
<stop offset="1" stop-color="#2073A2" stop-opacity="0.53"/>
</linearGradient>
<linearGradient id="paint1_linear_102_1573" x1="177.525" y1="214.5" x2="99.5247" y2="-5.49999" gradientUnits="userSpaceOnUse">
<stop stop-color="#4195C6"/>
<stop offset="1" stop-color="#5E8398" stop-opacity="0.56"/>
<stop offset="1" stop-color="#AFE2FF" stop-opacity="0.5"/>
</linearGradient>
<linearGradient id="paint2_linear_102_1573" x1="190.227" y1="22.373" x2="238.239" y2="100.805" gradientUnits="userSpaceOnUse">
<stop stop-color="#508ABF"/>
<stop offset="1" stop-color="#2073A2" stop-opacity="0.53"/>
</linearGradient>
<linearGradient id="paint3_linear_102_1573" x1="239.349" y1="134.244" x2="192.286" y2="1.12347" gradientUnits="userSpaceOnUse">
<stop stop-color="#4195C6"/>
<stop offset="1" stop-color="#5E8398" stop-opacity="0.56"/>
<stop offset="1" stop-color="#AFE2FF" stop-opacity="0.5"/>
</linearGradient>
</defs>
</svg>
