<svg width="275" height="155" viewBox="0 0 275 155" fill="none" xmlns="http://www.w3.org/2000/svg">
<rect width="12.7584" height="202.584" rx="6.37921" transform="matrix(0 -1 0.999998 0.00179862 72.4166 91.0101)" fill="url(#paint0_linear_102_1667)"/>
<rect width="12.7584" height="202.584" rx="6.37921" transform="matrix(0 -1 0.999998 0.00179862 0 123.331)" fill="url(#paint1_linear_102_1667)"/>
<rect width="12.7584" height="202.584" rx="6.37921" transform="matrix(0 -1 0.999998 0.00179862 25.6666 51.8842)" fill="url(#paint2_linear_102_1667)"/>
<rect width="12.7584" height="110" rx="6.37921" transform="matrix(0 -1 0.999998 0.00179862 72.4166 12.7584)" fill="url(#paint3_linear_102_1667)"/>
<rect width="12.7584" height="110" rx="6.37921" transform="matrix(0 -1 0.999998 0.00179862 72.4166 154.802)" fill="url(#paint4_linear_102_1667)"/>
<defs>
<linearGradient id="paint0_linear_102_1667" x1="1.4176" y1="178.274" x2="65.6411" y2="151.59" gradientUnits="userSpaceOnUse">
<stop stop-color="#35383C"/>
<stop offset="1" stop-color="#4B525B"/>
</linearGradient>
<linearGradient id="paint1_linear_102_1667" x1="1.4176" y1="178.274" x2="65.6411" y2="151.59" gradientUnits="userSpaceOnUse">
<stop stop-color="#35383C"/>
<stop offset="1" stop-color="#4B525B"/>
</linearGradient>
<linearGradient id="paint2_linear_102_1667" x1="1.4176" y1="178.274" x2="65.6411" y2="151.59" gradientUnits="userSpaceOnUse">
<stop stop-color="#35383C"/>
<stop offset="1" stop-color="#4B525B"/>
</linearGradient>
<linearGradient id="paint3_linear_102_1667" x1="1.4176" y1="96.8" x2="48.9167" y2="60.4544" gradientUnits="userSpaceOnUse">
<stop stop-color="#35383C"/>
<stop offset="1" stop-color="#4B525B"/>
</linearGradient>
<linearGradient id="paint4_linear_102_1667" x1="1.4176" y1="96.8" x2="48.9167" y2="60.4544" gradientUnits="userSpaceOnUse">
<stop stop-color="#35383C"/>
<stop offset="1" stop-color="#4B525B"/>
</linearGradient>
</defs>
</svg>
